# xmcd CD database file
#
# Track frame offsets:
#	150
#	18380
#	43340
#	58717
#	74395
#	94898
#	114898
#	125871
#	147988
#	225386
#	233407
#	246719
#	268278
#	281396
#
# Disc length: 4077 seconds
#
# Revision: 0
# Processed by: cddbd v1.4PL0 Copyright (c) Steve Scherf et al.
# Submitted via: CDex 1.50
#
DISCID=d10feb0e
DTITLE=Charly Antolini - Crash Count Down
DYEAR=1999
DGENRE=Jazz
TTITLE0=Motodrum
TTITLE1=Crash
TTITLE2=Cabriolet
TTITLE3=Carambolage
TTITLE4=Rotation
TTITLE5=Six Days
TTITLE6=Co-Pilot
TTITLE7=Indiana-Police
TTITLE8=Drm Symphonie
TTITLE9=Teachers Result
TTITLE10=Slow Motion
TTITLE11=Kilt
TTITLE12=Roulette
TTITLE13=Cowntdown
EXTD=YEAR: 1999
EXTT0=
EXTT1=
EXTT2=
EXTT3=
EXTT4=
EXTT5=
EXTT6=
EXTT7=
EXTT8=
EXTT9=
EXTT10=
EXTT11=
EXTT12=
EXTT13=
PLAYORDER=
